<?xml version="1.0" encoding="utf-8"?>
<!-- Generator: Adobe Illustrator 24.1.1, SVG Export Plug-In . SVG Version: 6.00 Build 0)  -->
<svg version="1.1" id="Layer_1" xmlns="http://www.w3.org/2000/svg" xmlns:xlink="http://www.w3.org/1999/xlink" x="0px" y="0px"
	 viewBox="0 0 2160.4 362.6" style="enable-background:new 0 0 2160.4 362.6;" xml:space="preserve">
<style type="text/css">
	.st0{enable-background:new    ;}
	.st1{fill:#5656BC;}
	.st2{fill:#5887FC;}
	.st3{fill:#CCCCFF;}
</style>
<g class="st0">
	<path class="st1" d="M675,298.3l32.6-228h3.7l92.7,187l91.8-187h3.7l32.8,228H910l-22.5-163l-80.6,163H801L719.4,134L697,298.3H675
		z"/>
	<path class="st1" d="M971.2,129.7h22.9l57.9,129.8l56.3-129.8h23.1L1030.8,360H1008l32.5-74.4L971.2,129.7z"/>
	<path class="st1" d="M1179.7,70.3h22.8v137.6c0,16.3,0.3,26.5,0.9,30.5c1.1,9,3.8,16.5,7.9,22.5c4.1,6,10.5,11.1,19.1,15.2
		s17.2,6.1,25.9,6.1c7.5,0,14.8-1.6,21.7-4.8c6.9-3.2,12.7-7.6,17.4-13.3c4.6-5.7,8.1-12.6,10.2-20.6c1.5-5.8,2.3-17.7,2.3-35.6
		V70.3h22.8v137.6c0,20.4-2,36.8-6,49.4s-11.9,23.5-23.9,32.8c-11.9,9.3-26.4,13.9-43.3,13.9c-18.4,0-34.1-4.4-47.3-13.2
		c-13.1-8.8-21.9-20.4-26.3-34.9c-2.8-8.9-4.2-24.9-4.2-48V70.3z"/>
	<path class="st1" d="M1392.2,298.3l32.6-228h3.7l92.7,187l91.8-187h3.7l32.8,228h-22.3l-22.5-163l-80.6,163h-5.8L1436.6,134
		l-22.4,164.3H1392.2z"/>
	<path class="st1" d="M1710.1,70.3h23.2v85.5l91.1-85.5h30.6l-109.5,102.3l118,125.7h-30.3l-99.9-106.2v106.2h-23.2L1710.1,70.3
		L1710.1,70.3z"/>
	<path class="st1" d="M1903.1,298.3l32.6-228h3.7l92.7,187l91.8-187h3.7l32.8,228h-22.3l-22.5-163l-80.6,163h-5.8L1947.5,134
		l-22.4,164.3H1903.1z"/>
</g>
<g>
	<polygon class="st2" points="245.1,209.4 287.7,283.2 241.8,362.6 156.6,362.6 	"/>
	<polygon class="st2" points="575.3,362.6 490.1,362.6 366,147.6 330.3,209.4 287.7,135.6 366,0 	"/>
	<polygon class="st3" points="330.3,209.4 287.7,283.2 245.1,209.4 287.7,135.6 	"/>
	<polygon class="st1" points="287.7,135.6 245.1,209.4 209.4,147.6 85.2,362.6 0,362.6 209.4,0 	"/>
	<polygon class="st1" points="418.7,362.6 333.5,362.6 287.7,283.2 330.3,209.4 	"/>
</g>
</svg>
